<svg width="205" height="35" viewBox="0 0 205 35" fill="none" xmlns="http://www.w3.org/2000/svg">
<path d="M24.912 33.456L22.656 29.088H10.896L8.64 33.456H0L16.8 2.256L33.552 33.456H24.912ZM13.92 23.232H19.632L16.8 17.76L13.92 23.232Z" fill="#F1F1F1"/>
<path d="M47.748 8.832C51.268 8.544 54.212 9.504 56.58 11.712C58.98 13.888 60.18 17.024 60.18 21.12V33.456H53.94V21.264H53.892V21.168C53.892 19.472 53.3 18.032 52.116 16.848C50.932 15.664 49.492 15.072 47.796 15.072C46.068 15.136 44.628 15.744 43.476 16.896C42.26 18.112 41.684 19.552 41.748 21.216V21.264H41.7V33.456H34.98V8.64H41.7V11.856C42.628 10.768 43.54 10.016 44.436 9.6C45.364 9.184 46.468 8.928 47.748 8.832Z" fill="#F1F1F1"/>
<path d="M69.2726 0V5.664H62.6006V0H69.2726ZM69.3206 8.784V33.456H62.6006V8.784H69.3206Z" fill="#F1F1F1"/>
<path d="M102.45 8.688C105.778 8.656 108.514 9.68 110.658 11.76C112.834 13.808 113.922 16.736 113.922 20.544V33.456H107.682V20.976C107.682 20.496 107.586 19.952 107.394 19.344C107.234 18.736 106.962 18.08 106.578 17.376C106.194 16.672 105.602 16.096 104.802 15.648C104.002 15.168 103.074 14.928 102.018 14.928C100.866 14.928 99.89 15.168 99.09 15.648C98.29 16.096 97.714 16.688 97.362 17.424C97.01 18.16 96.77 18.816 96.642 19.392C96.514 19.968 96.45 20.528 96.45 21.072V33.456H90.162V20.976C90.162 20.272 90.018 19.504 89.73 18.672C89.474 17.84 88.882 17.008 87.954 16.176C87.058 15.344 85.922 14.928 84.546 14.928C83.394 14.928 82.402 15.168 81.57 15.648C80.77 16.096 80.194 16.688 79.842 17.424C79.49 18.16 79.25 18.816 79.122 19.392C78.994 19.968 78.93 20.528 78.93 21.072V33.456H72.21V8.64H78.93V11.232C80.498 9.536 82.514 8.688 84.978 8.688C86.738 8.656 88.37 9.024 89.874 9.792C91.41 10.528 92.706 11.552 93.762 12.864L95.778 10.992C97.666 9.456 99.89 8.688 102.45 8.688Z" fill="#F1F1F1"/>
<path d="M140.596 21.024C140.596 21.056 140.596 21.264 140.596 21.648C140.596 22.032 140.596 22.4 140.596 22.752C140.596 23.072 140.596 23.28 140.596 23.376L122.548 23.328C122.804 24.064 123.268 24.768 123.94 25.44C125.188 26.624 126.628 27.216 128.26 27.216C129.988 27.152 131.428 26.544 132.58 25.392L132.772 25.2L139.012 27.168C137.636 29.312 136.148 30.896 134.548 31.92C132.948 32.912 130.868 33.424 128.308 33.456C124.916 33.488 122.004 32.304 119.572 29.904C117.14 27.504 115.908 24.592 115.876 21.168C115.844 17.776 117.028 14.864 119.428 12.432C121.828 10 124.74 8.768 128.164 8.736C131.556 8.704 134.468 9.888 136.9 12.288C139.332 14.688 140.564 17.6 140.596 21.024ZM128.212 15.024C126.516 15.024 125.076 15.616 123.892 16.8C123.284 17.472 122.852 18.144 122.596 18.816H133.876C133.62 18.144 133.172 17.456 132.532 16.752C131.316 15.6 129.876 15.024 128.212 15.024Z" fill="#F1F1F1"/>
<path d="M146.553 7.104C149.689 3.968 153.481 2.4 157.929 2.4C162.377 2.4 166.169 3.968 169.305 7.104C172.441 10.24 174.009 14.032 174.009 18.48C174.009 22.928 172.441 26.72 169.305 29.856C166.169 32.992 162.377 34.56 157.929 34.56C153.481 34.56 149.689 32.992 146.553 29.856C143.417 26.72 141.849 22.928 141.849 18.48C141.849 14.032 143.417 10.24 146.553 7.104ZM164.553 25.104C166.377 23.28 167.289 21.072 167.289 18.48C167.289 15.888 166.377 13.68 164.553 11.856C162.729 10.032 160.521 9.12 157.929 9.12C155.337 9.12 153.129 10.032 151.305 11.856C149.481 13.68 148.569 15.888 148.569 18.48C148.569 21.072 149.481 23.28 151.305 25.104C153.193 26.928 155.401 27.84 157.929 27.84C160.457 27.84 162.665 26.928 164.553 25.104Z" fill="#00CF05"/>
<path d="M196.579 2.256H204.067V33.456L183.379 18.24V33.456H175.891V2.256L196.579 18.192V2.256Z" fill="#00CF05"/>
</svg>
